<?xml version="1.0" encoding="UTF-8"?>
<svg id="Layer_1" data-name="Layer 1" xmlns="http://www.w3.org/2000/svg" width="135.74mm" height="170.64mm" viewBox="0 0 384.77 483.7">
  <g id="Layer_1-2" data-name="Layer 1">
    <g>
      <rect x=".37" y=".38" width="384.01" height="482.94" style="fill: #fbcded;"/>
      <path d="M.37.76h384.01l-.38-.38v482.94l.38-.38H.37l.38.38V.38C.75-.1,0-.1,0,.38v482.94c0,.2.17.38.38.38h384.01c.2,0,.38-.17.38-.38V.38c0-.2-.17-.38-.38-.38H.37C-.11,0-.11.75.37.75H.37Z"/>
    </g>
  </g>
  <g id="Layer_2" data-name="Layer 2">
    <path d="M107.95,42.47l161.59.09s33.8,7.55,37.08,35.71,2.29,343.79,2.29,343.79c0,0-4.52,34.33-39.82,37.01-35.29,2.67-163.48-.06-163.48-.06,0,0-30.88-4.31-37.81-37.64l-.66-342.48s7.38-31.74,40.8-36.41h0Z" style="fill: #d7518c; stroke: #000; stroke-miterlimit: 10;"/>
    <path d="M122.25,60.59l5.25,5.88,116.16-.39,7.59-4.91,20.29.63s12.44,4.68,16.59,18.54l.88,339.31s-3.42,17.92-22.41,21.62c-19,3.7-160.17-.98-160.17-.98,0,0-16.65-7.38-18.83-20.04l-.56-340.44s8.98-22.03,35.21-19.21h0Z" style="fill: #f997bd; stroke: #000; stroke-miterlimit: 10;"/>
    <path d="M187.97,55.76s1.83-1.48,3.6.11,1.81,3.59,1.81,3.59c0,0-.37,2.84-2.62,2.88s-3.3-.53-3.3-.53c0,0-2.12-1.67-1.17-3.71s1.68-2.34,1.68-2.34Z" style="fill: #fff; stroke: #000; stroke-miterlimit: 10;"/>
    <g id="Your_worst_nightmare" data-name="Your worst nightmare">
      <g>
        <path d="M116.74,123.98c-.11.28-.3.67-.58,1.14s-.46.84-.56,1.09-.69,2.58-1.79,6.97c-.93,3.74-1.55,5.61-1.87,5.62-.27,0-.51-.11-.72-.33-.24-.24-.35-.55-.36-.94,0-.24.09-.54.27-.9s.38-1,.6-1.92c.16-.69.32-1.38.47-2.07-.62-.72-1.16-1.81-1.64-3.3-.83-2.53-1.25-4.31-1.26-5.35,0-.87.25-1.31.78-1.31.61,0,.92.51.93,1.55,0,.1-.01.27-.03.48-.02.22-.04.39-.03.51,0,.63.21,1.62.62,2.97.43,1.42.81,2.24,1.15,2.44.13-.29.41-1.15.85-2.59.48-1.59.85-2.74,1.12-3.43.45-1.13.83-1.69,1.13-1.7.22,0,.43.1.6.3.18.2.29.46.32.77Z" style="stroke: #000; stroke-miterlimit: 10; stroke-width: .25px;"/>
        <path d="M125.2,130.28c.02,2.16-.33,3.99-1.04,5.5-.79,1.7-1.89,2.56-3.29,2.57-.4,0-.82-.11-1.28-.33-1.02-.47-1.75-1.3-2.2-2.48-.38-1.02-.58-2.38-.59-4.09-.02-2.22.33-4.18,1.04-5.88.82-2,1.94-3.01,3.37-3.02,1.25,0,2.25.85,3.01,2.57.65,1.48.98,3.2,1,5.17h-.02ZM123.74,130.09c-.02-3.12-.72-4.98-2.08-5.59-.14-.06-.31-.09-.49-.09-.57,0-1.14.38-1.7,1.14-.9,1.22-1.33,3.39-1.31,6.51,0,.29.05.68.13,1.19.18,1.15.45,1.98.8,2.49.4.6.98.89,1.75.89,1.04,0,1.82-.76,2.33-2.24.4-1.17.59-2.61.58-4.3h-.01Z" style="stroke: #000; stroke-miterlimit: 10; stroke-width: .25px;"/>
        <path d="M132.85,129.58c0,1.25-.08,2.57-.28,3.96-.23,1.73-.56,2.92-.98,3.58-.52.83-1.17,1.25-1.94,1.25-.69,0-1.3-.3-1.82-.91-.57-.69-.97-1.62-1.19-2.8-.16-.84-.24-1.96-.25-3.37,0-.69.02-1.73.07-3.12s.07-2.43.07-3.12c0-.12-.03-.3-.1-.53s-.09-.41-.1-.53c0-.37.2-.68.6-.93.31-.2.62-.3.93-.3.35,0,.52.15.52.47,0,.17-.05.41-.15.72-.1.32-.15.56-.15.74,0,.6-.04,1.51-.13,2.72-.09,1.22-.14,2.13-.13,2.75l.02,2.79c0,.86.12,1.61.35,2.27.28.84.69,1.26,1.21,1.25,1.02,0,1.68-1.39,2-4.15.14-1.29.21-3.29.19-6.01,0-.99-.12-1.79-.32-2.41-.06-.18-.09-.32-.09-.43,0-.27.06-.53.2-.79s.29-.39.48-.39.4.1.62.31.33.45.33.72l.04,6.23v.03Z" style="stroke: #000; stroke-miterlimit: 10; stroke-width: .25px;"/>
        <path d="M142.63,137.38v.11c-.15.33-.34.5-.56.5-.17,0-.32-.11-.44-.33-.1-.54-.78-1.41-2.04-2.62s-2.1-1.81-2.51-1.8h-.27c-.14.01-.24.02-.29.02v.88c0,.3.04.7.09,1.19.06.6.11.97.18,1.1.19.36.28.58.28.67,0,.27-.07.49-.21.66s-.3.26-.49.26c-.39,0-.69-.2-.9-.6-.21-.36-.32-1.84-.34-4.45-.21,0-.44-.09-.67-.29-.27-.24-.4-.49-.4-.76,0-.56.33-.95,1.01-1.2.04-.47.07-1.1.09-1.91,0-.92.03-1.55.06-1.91.06-.48.13-1.2.21-2.16h-.12c-.41.02-.61-.24-.62-.78,0-.46.12-.76.36-.88.17-.08.34-.15.52-.23.2-.27.36-.45.48-.53s.3-.13.56-.13c.18,0,.27.12.28.36,0,.08.13.11.38.11,1.19,0,2.2.34,3.04,1.04,1.03.85,1.55,2.08,1.57,3.7,0,1.25-.25,2.27-.77,3.09-.35.56-.98,1.18-1.88,1.88.73.67,1.45,1.34,2.16,2.01.83.91,1.24,1.91,1.24,3.01h0ZM140.48,127.32c0-.96-.34-1.69-1.01-2.17-.53-.4-1.16-.6-1.87-.59-.09,0-.31.02-.66.07,0,.54-.08,1.47-.27,2.79-.11.8-.18,1.96-.2,3.49.59.3.96.44,1.11.44.12,0,.3-.05.53-.16.67-.3,1.22-.77,1.64-1.38.5-.71.74-1.53.73-2.48h0Z" style="stroke: #000; stroke-miterlimit: 10; stroke-width: .25px;"/>
        <path d="M155.26,127.44c0,1.71-.18,3.65-.57,5.81-.52,2.84-1.18,4.26-2,4.27-.71,0-1.24-.66-1.57-1.99-.19-.75-.33-1.86-.44-3.33-.23,1.7-.42,2.83-.56,3.4-.37,1.55-.82,2.32-1.36,2.33-.4,0-.76-.24-1.09-.74-.43-.64-.77-2.66-1-6.07-.17-2.32-.26-4.57-.28-6.73,0-1.15.32-1.73.99-1.74.6,0,.9.2.9.6,0,.18-.03.37-.11.57-.07.2-.14.4-.21.6-.13.39-.18,1.21-.18,2.45.04,5.74.36,8.6.96,8.6.21,0,.46-1.12.75-3.35.35-2.64.51-4.66.5-6.07,0-.21.09-.42.28-.64s.36-.33.51-.33c.3,0,.58.15.83.47s.39.7.43,1.15c-.2.44-.3,1.24-.29,2.41.03,4.22.31,6.33.85,6.33s.91-1.21,1.18-3.61c.18-1.67.27-3.2.26-4.6,0-.59-.03-1.02-.08-1.31-.05-.28-.17-.71-.35-1.28-.17-.48-.25-.84-.25-1.08,0-.36.05-.69.16-.99.14-.38.32-.57.55-.57.31,0,.6.79.86,2.38.19,1.24.29,2.26.3,3.06h.03Z" style="stroke: #000; stroke-miterlimit: 10; stroke-width: .25px;"/>
        <path d="M165.07,130c.02,2.16-.33,3.99-1.04,5.5-.79,1.7-1.89,2.56-3.29,2.57-.4,0-.82-.11-1.28-.33-1.02-.47-1.75-1.3-2.2-2.48-.38-1.02-.58-2.38-.59-4.09-.02-2.22.33-4.18,1.04-5.88.82-2,1.94-3.01,3.37-3.02,1.25,0,2.25.85,3.01,2.56.65,1.48.98,3.2,1,5.17h-.02ZM163.6,129.81c-.02-3.12-.72-4.98-2.08-5.59-.14-.06-.31-.09-.49-.09-.57,0-1.14.38-1.7,1.14-.9,1.22-1.33,3.39-1.31,6.51,0,.29.05.68.13,1.19.18,1.15.45,1.98.79,2.49.4.6.98.89,1.75.89,1.04,0,1.81-.76,2.33-2.24.4-1.17.59-2.61.58-4.3h0Z" style="stroke: #000; stroke-miterlimit: 10; stroke-width: .25px;"/>
        <path d="M174.84,137.15v.11c-.15.33-.34.5-.56.5-.17,0-.32-.11-.44-.33-.1-.54-.78-1.41-2.04-2.62s-2.1-1.81-2.51-1.8h-.27c-.14.02-.24.02-.29.02v.88c0,.3.04.7.09,1.19.06.6.11.97.18,1.1.19.36.28.58.28.67,0,.27-.07.49-.21.66s-.3.26-.49.26c-.39,0-.69-.2-.9-.6-.21-.36-.32-1.84-.34-4.45-.21,0-.44-.09-.67-.29-.27-.24-.4-.49-.4-.76,0-.56.33-.95,1.01-1.2.04-.47.07-1.1.09-1.91,0-.91.03-1.55.06-1.91.06-.48.13-1.2.21-2.16h-.12c-.41.02-.61-.24-.62-.78,0-.46.12-.76.36-.88.17-.08.34-.15.52-.23.2-.27.36-.45.48-.53s.3-.13.56-.13c.18,0,.27.12.28.36,0,.08.13.11.38.11,1.19,0,2.2.34,3.04,1.04,1.03.85,1.56,2.08,1.57,3.7,0,1.25-.25,2.27-.77,3.09-.35.56-.98,1.18-1.88,1.88.73.67,1.45,1.34,2.16,2.01.83.91,1.24,1.91,1.24,3.01h0ZM172.69,127.09c0-.96-.34-1.69-1.01-2.18-.53-.4-1.16-.6-1.87-.59-.09,0-.31.02-.66.07,0,.54-.08,1.47-.27,2.79-.11.8-.18,1.96-.2,3.49.59.3.96.44,1.1.44.12,0,.3-.05.53-.16.67-.3,1.22-.77,1.64-1.38.5-.71.74-1.53.73-2.48h0Z" style="stroke: #000; stroke-miterlimit: 10; stroke-width: .25px;"/>
        <path d="M182.85,135.27c0,.92-.35,1.62-1.07,2.13-.57.41-1.2.62-1.9.62-.64,0-1.39-.2-2.26-.61-1.07-.53-1.61-1.16-1.62-1.88,0-.27.06-.5.19-.7s.29-.29.47-.3c.27,0,.53.16.77.49.4.49.62.76.65.8.36.3,1,.44,1.92.44.82,0,1.23-.29,1.23-.84,0-.46-.4-1.11-1.17-1.93-.54-.51-1.08-1.01-1.63-1.52-.7-.68-1.2-1.33-1.52-1.95-.42-.81-.64-1.74-.64-2.79,0-1.32.26-2.5.8-3.54.58-1.14,1.31-1.72,2.18-1.73.75,0,1.39.29,1.91.9.52.6.86,1.45,1.01,2.55.03.42.1,1.04.2,1.87.04.24.06.42.06.54,0,.54-.05,1-.17,1.37-.15.51-.39.77-.71.77-.18,0-.36-.12-.53-.37s-.26-.51-.26-.78c0-.19.03-.49.08-.87s.09-.67.09-.87c0-2.03-.48-3.05-1.39-3.04-.51,0-.93.33-1.27.97-.34.64-.51,1.35-.5,2.11,0,1.08.45,2.13,1.33,3.14.81.79,1.62,1.58,2.44,2.37.87.91,1.31,1.79,1.31,2.63v.02Z" style="stroke: #000; stroke-miterlimit: 10; stroke-width: .25px;"/>
        <path d="M190.74,123.74c0,.25-.05.48-.16.66-.11.19-.24.28-.4.29-.09,0-.26-.06-.51-.19s-.46-.19-.62-.19h-1.05c-.15,0-.24.02-.25.06-.02.04-.03.19-.05.44-.04.38-.1.94-.17,1.69-.18,2.04-.26,4.34-.24,6.91,0,1.74.16,2.93.44,3.57v.61c-.19.15-.34.23-.45.23-.65,0-1.08-.46-1.27-1.39-.1-.45-.15-1.31-.16-2.59,0-1.48,0-2.64.04-3.47,0-.36.06-1.22.15-2.59.07-1.07.11-1.93.1-2.59v-.65c-.15.02-.42.07-.83.16-.34.08-.61.12-.83.12-.71,0-1.06-.3-1.06-.91,0-.25.05-.41.15-.45.15-.33.95-.62,2.39-.87,1.12-.19,2.02-.29,2.71-.29.49,0,.92.08,1.28.26.53.25.8.64.8,1.16v.02Z" style="stroke: #000; stroke-miterlimit: 10; stroke-width: .25px;"/>
        <path d="M201.49,122.59c0,.17-.04.38-.13.63-.11.33-.17.53-.19.61-.29,1.37-.42,2.49-.42,3.36v6.47c0,.66-.1,1.34-.29,2.03-.25.87-.56,1.31-.94,1.31-.56,0-1.12-.68-1.68-2.06-.4-1.02-.82-2.42-1.23-4.22-.24-1.17-.49-2.34-.74-3.5-.2,2.55-.29,4.26-.28,5.13,0,1.92.1,3.02.26,3.31.16.28.24.49.24.63,0,.29-.1.54-.3.76s-.4.33-.61.33c-.28,0-.52-.44-.71-1.32-.15-.69-.22-1.32-.23-1.89v-2.27c0-.61.04-1.53.13-2.75.09-1.21.14-2.13.13-2.75l-.02-2.74s0-.08-.02-.14c-.02-.06-.02-.1-.02-.13,0-.3.13-.55.41-.75.22-.17.45-.25.67-.25.52,0,.89.24,1.12.74.06.16.12.51.18,1.03.03.36.07.73.1,1.1.13,1.06.46,2.77,1,5.12.64,2.77,1.11,4.15,1.42,4.15.11,0,.17-.21.16-.63,0-.12-.02-.31-.04-.58-.03-.27-.04-.48-.04-.63l.11-6.11c.02-.92.12-1.82.3-2.71.25-1.25.61-1.87,1.05-1.88.14,0,.34.13.6.4,0,.08.02.14.02.2h-.01Z" style="stroke: #000; stroke-miterlimit: 10; stroke-width: .25px;"/>
        <path d="M204.8,123.31c0,.07-.04.24-.13.5-.04.12-.08.46-.12,1.01-.19,3.36-.28,6.31-.26,8.85,0,.66.05,1.19.13,1.6.07.35.22.82.45,1.41,0,.03.02.08.02.13,0,.32-.25.47-.74.48h-.14c-.52-.01-.84-.62-.96-1.84-.15-1.49-.24-3.53-.26-6.14v-5.58c0-.34.12-.68.36-.99.24-.32.48-.48.71-.48.18,0,.38.11.6.33s.32.46.33.72h0Z" style="stroke: #000; stroke-miterlimit: 10; stroke-width: .25px;"/>
        <path d="M213.06,132.72c0,1.3-.37,2.47-1.13,3.5-.77,1.03-1.6,1.54-2.49,1.55-1.29,0-2.25-.73-2.88-2.21-.51-1.21-.77-2.84-.78-4.88,0-2.07.27-3.95.86-5.64.71-2.06,1.7-3.1,2.97-3.11.63,0,1.18.21,1.65.64.52.49.85,1.17.98,2.02.11.71.16,1.05.16,1.01,0,1.99-.28,2.98-.89,2.99-.18,0-.35-.09-.51-.27-.15-.18-.23-.41-.23-.68,0-.15.05-.37.16-.66s.16-.51.16-.68c0-.86-.08-1.45-.22-1.76-.19-.44-.55-.65-1.08-.65s-1.05.51-1.51,1.52c-.38.84-.63,1.72-.74,2.64-.11.98-.17,1.88-.16,2.71,0,1.41.09,2.43.25,3.06.25,1.02.75,1.69,1.49,2,.22.09.41.13.55.13.36,0,.75-.23,1.15-.68.35-.42.62-.9.81-1.42.11-.32.17-.71.19-1.19l-.06-.07c-.72,0-1.28.14-1.67.39-.12.09-.24.19-.36.3-.16.11-.29.16-.38.16-.25,0-.45-.15-.6-.47-.14-.31-.22-.67-.22-1.06,0-.33.11-.6.35-.81.15-.12.63-.27,1.43-.44.73-.14,1.24-.21,1.54-.21.83,0,1.26.75,1.27,2.26h-.06Z" style="stroke: #000; stroke-miterlimit: 10; stroke-width: .25px;"/>
        <path d="M222.59,123.34c0,.14-.07.29-.21.45-.14.17-.22.29-.24.36-.26.74-.37,2.19-.34,4.34l.02.88s.07-.02.11-.02c.15,0,.3.13.44.38s.21.5.21.74c0,.18-.09.31-.29.39-.15.05-.3.09-.46.14.02.71.03,1.42.05,2.14.03.91.1,1.6.21,2.04.08.38.13.62.13.74,0,.3-.07.57-.22.82s-.33.37-.53.38c-.39,0-.64-.3-.77-.9-.02-.12-.07-.64-.15-1.57-.02-.33-.04-.73-.04-1.19v-.92c-.02-.62-.05-1.12-.09-1.51-.59.03-1.29.17-2.1.4-.7.2-1.4.4-2.09.6.04.19.07,1,.08,2.43,0,1.14.13,1.89.37,2.25.03.08.05.15.05.23,0,.39-.2.59-.61.59-.38,0-.67-.17-.89-.51-.13-.21-.27-1.77-.41-4.68-.19-.06-.35-.23-.46-.51s-.17-.58-.17-.9c0-.18.06-.3.2-.37.13-.07.26-.13.38-.19,0-.2.03-.55.05-1.06.03-.44.04-.78.04-1.03-.02-2.64.07-4.32.25-5.04.16-.59.44-.88.83-.88.24,0,.47.11.69.35.22.23.32.52.33.86,0,.18-.04.4-.12.68-.11.36-.17.57-.18.63-.27,1.26-.39,2.76-.38,4.5v.52c.09-.01.33-.08.72-.18,1.2-.37,2.32-.56,3.38-.56,0-2.21.05-3.63.09-4.28.16-2.16.5-3.24,1.03-3.25.31,0,.58.17.78.52.21.35.31.76.31,1.22v-.03Z" style="stroke: #000; stroke-miterlimit: 10; stroke-width: .25px;"/>
        <path d="M230.87,123.46c0,.25-.05.48-.16.66-.11.19-.24.28-.4.28-.09,0-.26-.06-.51-.19s-.46-.19-.62-.19h-1.05c-.15,0-.24.02-.25.06-.02.04-.03.19-.05.44-.04.38-.1.94-.17,1.69-.18,2.04-.26,4.34-.24,6.91,0,1.74.16,2.93.44,3.57v.61c-.19.15-.34.23-.45.23-.65,0-1.08-.46-1.28-1.39-.1-.45-.15-1.31-.16-2.59,0-1.48,0-2.64.04-3.47,0-.36.06-1.22.15-2.59.07-1.07.11-1.93.1-2.59v-.65c-.15.02-.42.07-.83.16-.34.08-.61.12-.83.12-.71,0-1.06-.3-1.06-.92,0-.25.05-.41.15-.45.15-.33.95-.62,2.39-.87,1.12-.19,2.02-.28,2.71-.29.49,0,.92.08,1.28.26.53.25.8.64.8,1.16v.04Z" style="stroke: #000; stroke-miterlimit: 10; stroke-width: .25px;"/>
        <path d="M241.17,122.51c0,.21-.04.38-.13.52-.15.26-.23.39-.24.41-.06.15-.12.54-.18,1.17-.23,3.06-.34,6.09-.32,9.07,0,1.68.22,2.62.63,2.83v.61c-.12.38-.3.56-.56.57-.52,0-.91-.66-1.19-1.99-.2-.94-.3-1.93-.31-2.97-.02-2.27,0-4.16.08-5.67-.29,1.76-.59,3.52-.89,5.29-.55,2.73-1.09,4.1-1.61,4.11-.6,0-1.13-.8-1.6-2.4-.44-1.45-.98-3.89-1.62-7.32-.05,1.02-.08,2.06-.07,3.13.02,2.21.07,3.8.15,4.79,0,.18.07.47.18.87s.16.71.16.93c0,.5-.27.74-.83.75-.66,0-1-1.31-1.02-3.93,0-1.06.02-2.66.09-4.77.07-2.12.1-3.7.09-4.75,0-.12-.04-.25-.12-.38-.08-.14-.12-.26-.12-.38,0-.84.5-1.26,1.52-1.27.23,0,.51.21.84.65.03.47.09,1.17.17,2.11.11,1.32.36,3.07.75,5.24.52,2.8.96,4.2,1.33,4.2.08,0,.19-.23.32-.7.25-.9.49-2.17.72-3.81.17-1.31.35-2.61.52-3.92.08-.62.22-1.5.42-2.66.21-.86.65-1.29,1.33-1.29.24,0,.54.08.89.24.42.21.63.45.63.74v-.02Z" style="stroke: #000; stroke-miterlimit: 10; stroke-width: .25px;"/>
        <path d="M250.32,133.02c0,.72-.21,1.09-.65,1.11.05.34.17.81.35,1.39,0,.33-.1.6-.27.81s-.37.32-.61.32c-.18,0-.4-.08-.64-.24-.14-.39-.2-.85-.21-1.39,0-.13,0-.33,0-.58,0-.26,0-.44,0-.56,0,.11-.17.16-.5.16-.57,0-1.25.05-2.03.13-1.12.1-1.72.23-1.82.4-.1.17-.15.97-.17,2.41-.13.29-.3.43-.5.43-.21,0-.43-.13-.66-.39-.23-.26-.34-.54-.34-.84,0-.1.09-.53.27-1.26.2-1.07.52-2.66.96-4.8,1.32-5.52,2.44-8.28,3.34-8.28s1.58,1.44,2.07,4.35c.22,1.3.44,3.3.64,6,.27.09.43.16.51.22.16.13.25.34.25.63v-.02ZM248.18,132.18c-.48-5.23-.91-7.85-1.26-7.84-.28,0-.77,1.24-1.47,3.7-.5,1.77-.89,3.31-1.17,4.62.33-.11.81-.24,1.45-.39.58-.11,1.4-.14,2.45-.09Z" style="stroke: #000; stroke-miterlimit: 10; stroke-width: .25px;"/>
        <path d="M260.05,136.55v.11c-.15.33-.34.5-.56.5-.17,0-.32-.11-.44-.33-.1-.54-.78-1.41-2.04-2.62-1.26-1.21-2.1-1.81-2.51-1.8h-.27c-.14.02-.24.02-.29.02v.88c0,.3.04.7.09,1.19.06.6.11.97.17,1.1.19.36.28.58.28.67,0,.27-.07.49-.21.66s-.3.26-.49.26c-.39,0-.69-.2-.9-.6-.21-.36-.32-1.84-.34-4.45-.21,0-.44-.09-.67-.29-.27-.24-.4-.49-.4-.76,0-.56.33-.96,1.01-1.2.04-.47.07-1.1.09-1.91,0-.92.03-1.55.06-1.91.06-.48.13-1.2.21-2.16h-.12c-.41.02-.61-.24-.62-.78,0-.46.12-.76.36-.88.17-.08.34-.15.52-.23.2-.27.36-.45.48-.53s.3-.13.56-.13c.18,0,.27.12.28.36,0,.08.13.11.38.11,1.19,0,2.2.34,3.04,1.04,1.03.85,1.55,2.08,1.57,3.7,0,1.25-.25,2.27-.77,3.09-.35.56-.98,1.19-1.88,1.88.73.67,1.45,1.34,2.16,2.01.83.91,1.24,1.91,1.24,3.01h0ZM257.91,126.48c0-.96-.34-1.69-1.01-2.17-.53-.4-1.16-.6-1.87-.6-.09,0-.31.03-.66.07,0,.54-.08,1.47-.27,2.79-.11.8-.17,1.96-.2,3.49.59.3.96.44,1.1.44.12,0,.3-.05.53-.16.67-.3,1.22-.77,1.64-1.38.5-.71.74-1.53.73-2.48h0Z" style="stroke: #000; stroke-miterlimit: 10; stroke-width: .25px;"/>
        <path d="M268.29,135.2c0,.25-.03.47-.1.67-.09.25-.21.38-.36.38-.04,0-.1-.01-.18-.03s-.14-.03-.18-.03c-.44,0-1.07.2-1.89.6-.83.4-1.46.6-1.89.6-1.64.01-2.47-1.81-2.49-5.47-.02-2.88.01-5.16.1-6.84,0-.22.01-.34.01-.36,0-.1-.01-.26-.03-.46-.02-.2-.03-.35-.03-.44,0-.69.25-1.1.75-1.22.78-.21,1.56-.44,2.34-.67,1.02-.29,1.79-.44,2.3-.44.29,0,.55.07.78.22.31.21.46.5.46.87,0,.55-.24.83-.74.84-.06,0-.16,0-.28-.03-.13-.02-.22-.03-.28-.03-.82,0-1.95.28-3.37.83-.08.02-.16.04-.23.07s-.12.14-.15.34c-.11.72-.15,2.13-.14,4.23,0,.31.1.47.29.47.26,0,.65-.1,1.14-.3s.88-.3,1.14-.3c.29,0,.64.13,1.02.4.1.48.16.77.16.88,0,.38-.07.58-.22.61s-.32.06-.49.09c-.08-.08-.19-.11-.34-.11-.36,0-.78.07-1.28.21-.42.14-.84.27-1.26.39-.06.01-.11.03-.16.05-.05.02-.08.11-.1.27-.02.27-.03.49-.03.65,0,1.15.03,1.85.06,2.07.11.87.39,1.3.85,1.3.39,0,.95-.18,1.69-.53s1.33-.53,1.77-.53c.69,0,1.14.25,1.35.77v-.02Z" style="stroke: #000; stroke-miterlimit: 10; stroke-width: .25px;"/>
      </g>
      <g style="isolation: isolate;">
        <text transform="translate(162.74 160.28) rotate(-.27)" style="font-family: Noteworthy-Light, Noteworthy; font-size: 18px; font-weight: 300; isolation: isolate;"><tspan x="0" y="0">i</tspan></text>
        <text transform="translate(165.19 160.27) rotate(-.27)" style="font-family: Noteworthy-Light, Noteworthy; font-size: 18px; font-weight: 300; isolation: isolate;"><tspan x="0" y="0">s </tspan></text>
        <text transform="translate(177.97 160.21) rotate(-.27)" style="font-family: Noteworthy-Light, Noteworthy; font-size: 18px; font-weight: 300; isolation: isolate;"><tspan x="0" y="0">c</tspan></text>
        <text transform="translate(185.98 160.17) rotate(-.27)" style="font-family: Noteworthy-Light, Noteworthy; font-size: 18px; font-weight: 300; isolation: isolate; letter-spacing: .03em;"><tspan x="0" y="0">a</tspan></text>
        <text transform="translate(194.58 160.13) rotate(-.27)" style="font-family: Noteworthy-Light, Noteworthy; font-size: 18px; font-weight: 300; isolation: isolate;"><tspan x="0" y="0" style="letter-spacing: 0em;">l</tspan><tspan x="2.97" y="0">l</tspan></text>
        <text transform="translate(200.52 160.1) rotate(-.27)" style="font-family: Noteworthy-Light, Noteworthy; font-size: 18px; font-weight: 300; isolation: isolate;"><tspan x="0" y="0">ing</tspan></text>
      </g>
    </g>
    <g id="accept">
      <path id="Accept_cirkel" data-name="Accept cirkel" d="M123.78,321.14s19.77-14.22,36.82,1.15,4.75,35.21,4.75,35.21c0,0-7.99,10.99-19.82,12.19-11.83,1.2-23.05-6.79-23.05-6.79,0,0-8.55-6.78-10.16-20.09,0,0-.51-12.6,11.46-21.67h0Z" style="fill: #fbcded; stroke: #000; stroke-miterlimit: 10;"/>
      <path id="Accept_hvid" data-name="Accept hvid" d="M143.64,353.76l-16.65-15.16s-2.68-3.93-1.88-5.73,4.71-5.8,4.71-5.8c0,0,1.43-.85,2.22.34l6.41,6.4-1.46,5.3,7.11,6.66,5-1.8s3.09.29,3.34,1.36l4.33,3.76s.8,1.18-.27,2.35l-4.37,4.8s-4.7.95-8.48-2.49h-.01Z" style="fill: #fff; stroke: #000; stroke-miterlimit: 10;"/>
      <g style="isolation: isolate;">
        <text transform="translate(116.34 395.21) rotate(1.78)" style="font-family: Noteworthy-Light, Noteworthy; font-size: 14px; font-weight: 300; isolation: isolate; letter-spacing: .02em;"><tspan x="0" y="0">A</tspan></text>
        <text transform="translate(125.46 395.49) rotate(1.78)" style="font-family: Noteworthy-Light, Noteworthy; font-size: 14px; font-weight: 300; isolation: isolate;"><tspan x="0" y="0">CCE</tspan></text>
        <text transform="translate(150.3 396.27) rotate(1.78)" style="font-family: Noteworthy-Light, Noteworthy; font-size: 14px; font-weight: 300; isolation: isolate;"><tspan x="0" y="0">P</tspan></text>
        <text transform="translate(158.53 396.52) rotate(1.78)" style="font-family: Noteworthy-Light, Noteworthy; font-size: 14px; font-weight: 300; isolation: isolate;"><tspan x="0" y="0">T</tspan></text>
      </g>
    </g>
    <g id="decline">
      <path id="Decline_cirkel" data-name="Decline cirkel" d="M220.29,319.59s19.77-14.22,36.82,1.15c17.05,15.36,4.75,35.21,4.75,35.21,0,0-7.99,10.99-19.82,12.19s-23.05-6.79-23.05-6.79c0,0-8.55-6.78-10.16-20.09,0,0-.51-12.6,11.46-21.67h0Z" style="fill: #fbcded; stroke: #000; stroke-miterlimit: 10;"/>
      <path id="Decline_hvid" data-name="Decline hvid" d="M228.59,333.1l22.51.7s4.59,1.25,5.15,3.13c.56,1.88.18,7.47.18,7.47,0,0-.53,1.57-1.9,1.18l-9.03-.7-2.33-4.98-9.73-.44-2.63,4.62s-2.54,1.79-3.42,1.14l-5.73-.05s-1.37-.38-1.32-1.96l.2-6.49s2.95-3.78,8.06-3.62h0Z" style="fill: #fff; stroke: #000; stroke-miterlimit: 10;"/>
      <g style="isolation: isolate;">
        <text transform="translate(212.37 397.95) rotate(1.78)" style="font-family: Noteworthy-Light, Noteworthy; font-size: 14px; font-weight: 300; isolation: isolate;"><tspan x="0" y="0">D</tspan></text>
        <text transform="translate(221.22 398.22) rotate(1.78)" style="font-family: Noteworthy-Light, Noteworthy; font-size: 14px; font-weight: 300; isolation: isolate;"><tspan x="0" y="0">E</tspan></text>
        <text transform="translate(228.63 398.46) rotate(1.78)" style="font-family: Noteworthy-Light, Noteworthy; font-size: 14px; font-weight: 300; isolation: isolate;"><tspan x="0" y="0">CLI</tspan></text>
        <text transform="translate(246.63 399.01) rotate(1.78)" style="font-family: Noteworthy-Light, Noteworthy; font-size: 14px; font-weight: 300; isolation: isolate; letter-spacing: .03em;"><tspan x="0" y="0">N</tspan></text>
        <text transform="translate(255.01 399.28) rotate(1.78)" style="font-family: Noteworthy-Light, Noteworthy; font-size: 14px; font-weight: 300; isolation: isolate;"><tspan x="0" y="0">E</tspan></text>
      </g>
    </g>
    <g id="Remind_me" data-name="Remind me">
      <path d="M125.81,218.52c.44,0,.88-.06,1.32-.06h126.4s11.68-.84,17.23,8.4c4.84,8.05,3.24,35.25,2.75,42.09-.08,1.18-.34,2.33-.78,3.43-1.63,4.05-6.45,13.23-16.28,12.13l-137.07.09c-1.64,0-3.28-.29-4.79-.91-3.06-1.27-8.08-4.12-9.15-10.93,0,0-7.98-13.73,0-43.1,0,0,3.13-11.06,20.37-11.12v-.02Z" style="fill: #fbcded; stroke: #000; stroke-miterlimit: 10;"/>
      <g style="isolation: isolate;">
        <text transform="translate(109.31 246.64) rotate(-.27)" style="font-family: Noteworthy-Light, Noteworthy; font-size: 14px; font-weight: 300; isolation: isolate;"><tspan x="0" y="0" xml:space="preserve">          </tspan></text>
        <text transform="translate(146.23 246.47) rotate(-.27)" style="font-family: Noteworthy-Bold, Noteworthy; font-size: 14px; font-weight: 700; isolation: isolate;"><tspan x="0" y="0">REMI</tspan></text>
        <text transform="translate(182.58 246.29) rotate(-.27)" style="font-family: Noteworthy-Bold, Noteworthy; font-size: 14px; font-weight: 700; isolation: isolate; letter-spacing: .01em;"><tspan x="0" y="0">N</tspan></text>
        <text transform="translate(192.5 246.25) rotate(-.27)" style="font-family: Noteworthy-Bold, Noteworthy; font-size: 14px; font-weight: 700; isolation: isolate;"><tspan x="0" y="0">D ME</tspan></text>
        <text transform="translate(109.39 263.44) rotate(-.27)" style="font-family: Noteworthy-Bold, Noteworthy; font-size: 14px; font-weight: 700; isolation: isolate;"><tspan x="0" y="0">WHEN TIK</tspan></text>
        <text transform="translate(177.6 263.12) rotate(-.27)" style="font-family: Noteworthy-Bold, Noteworthy; font-size: 14px; font-weight: 700; isolation: isolate;"><tspan x="0" y="0">T</tspan></text>
        <text transform="translate(185.5 263.08) rotate(-.27)" style="font-family: Noteworthy-Bold, Noteworthy; font-size: 14px; font-weight: 700; isolation: isolate;"><tspan x="0" y="0">OK IS </tspan></text>
        <text transform="translate(225.27 262.89) rotate(-.27)" style="font-family: Noteworthy-Bold, Noteworthy; font-size: 14px; font-weight: 700; isolation: isolate;"><tspan x="0" y="0">B</tspan></text>
        <text transform="translate(234.69 262.85) rotate(-.27)" style="font-family: Noteworthy-Bold, Noteworthy; font-size: 14px; font-weight: 700; isolation: isolate; letter-spacing: .02em;"><tspan x="0" y="0">A</tspan></text>
        <text transform="translate(245.49 262.8) rotate(-.27)" style="font-family: Noteworthy-Bold, Noteworthy; font-size: 14px; font-weight: 700; isolation: isolate;"><tspan x="0" y="0">CK</tspan></text>
      </g>
    </g>
  </g>
</svg>