<?xml version="1.0" encoding="UTF-8"?>
<svg id="Layer_1" data-name="Layer 1" xmlns="http://www.w3.org/2000/svg" width="204.2mm" height="126.28mm" viewBox="0 0 578.84 357.97">
  <path d="M398.05,208.48s201.15-111.11,179.09-161.04c-22.06-49.94-199.98-.36-199.98-.36-9.01-3.8-233.56,95.56-228.58,91.52,0,0-162.06,94.46-147.69,147.65s231.44-12.88,231.44-12.88l165.71-64.88Z" style="fill: #d7518d;"/>
  <path d="M390.31,187.05s167.09-90.77,145.78-123.48c-21.31-32.7-171.44,14.14-171.44,14.14-7.91-1.96-195.61,82.43-191.54,79.29,0,0-134.38,76.53-119.5,112.02,14.88,35.49,197.77-25.5,197.77-25.5l138.93-56.48Z" style="fill: #e387b0;"/>
  <g>
    <path d="M272.19,357.97c63.05-52.42,102.72-104.27,126.52-140.4,37.48-56.9,62.5-96.15,50.02-139.92-8.35-29.27-35.57-67.94-74.25-76.08-2.01-.42-9.9-2-21.38-1.45-42.29,2-70.84,29.76-81.3,41.16" style="fill: #f9cfdf;"/>
    <path d="M272.24,357.97c-29.01-24.12-53.07-48.12-72.9-70.52-23.28-26.29-40.75-50.38-53.59-69.88-37.48-56.9-62.49-96.15-50.01-139.92C104.07,48.38,131.29,9.71,169.97,1.57c2.01-.42,9.9-2,21.38-1.45,42.28,2,70.83,29.76,81.29,41.16" style="fill: #f9cfdf;"/>
  </g>
  <g>
    <path d="M271.76,322.32c46.57-41.98,75.87-83.51,93.45-112.44,27.69-45.57,46.16-77,36.94-112.06-6.16-23.44-26.27-54.41-54.84-60.93-1.48-.34-7.31-1.6-15.79-1.16-31.24,1.6-52.32,23.84-60.05,32.96" style="fill: #d7518d;"/>
    <path d="M271.8,322.32c-46.57-41.98-75.86-83.51-93.43-112.44-27.68-45.57-46.16-77-36.94-112.06,6.16-23.44,26.27-54.41,54.84-60.93,1.48-.34,7.31-1.6,15.79-1.16,31.23,1.6,52.31,23.84,60.04,32.96" style="fill: #d7518d;"/>
  </g>
  <path d="M397.69,35.65s-1.55,41.7-35.82,44.75c0,0,31.84,1.17,35.82,42.87,0,0,3.54-40.53,35.15-42.17,0,0-32.06-4.33-35.15-45.45Z" style="fill: #fffae1;"/>
  <path d="M415.27,123.55s-.77,20.85-17.91,22.37c0,0,15.92.59,17.91,21.44,0,0,1.77-20.26,17.58-21.08,0,0-16.03-2.17-17.58-22.72Z" style="fill: #fffae1;"/>
  <path d="M338.17,64.53s-.77,14.21-17.91,15.25c0,0,15.92.4,17.91,14.61,0,0,1.77-13.81,17.58-14.37,0,0-16.03-1.48-17.58-15.49Z" style="fill: #fffae1;"/>
</svg>