<?xml version="1.0" encoding="UTF-8"?>
<svg xmlns="http://www.w3.org/2000/svg" width="138.99mm" height="138.99mm" viewBox="0 0 394 394">
  <g id="Layer_1" data-name="Layer 1">
    <rect width="394" height="394" style="fill: #e387b0;"/>
  </g>
  <g id="Layer_2" data-name="Layer 2">
    <g>
      <path d="M269.94,290.58s131.06-72.45,116.69-105.01c-14.37-32.56-130.3-.24-130.3-.24-5.87-2.48-152.18,62.31-148.93,59.68,0,0-105.59,61.59-96.23,96.28,9.37,34.68,150.8-8.4,150.8-8.4l107.97-42.31Z" style="fill: #d7518d;"/>
      <path d="M264.9,276.61s108.87-59.19,94.98-80.51c-13.88-21.33-111.7,9.22-111.7,9.22-5.15-1.28-127.45,53.75-124.8,51.7,0,0-87.56,49.9-77.86,73.04,9.7,23.14,128.86-16.63,128.86-16.63l90.52-36.83Z" style="fill: #e387b0;"/>
      <g>
        <path d="M187.94,388.05c41.08-34.18,66.93-67.99,82.43-91.55,24.42-37.1,40.72-62.7,32.59-91.24-5.44-19.08-23.17-44.3-48.38-49.61-1.31-.28-6.45-1.3-13.93-.95-27.55,1.3-46.15,19.41-52.97,26.84" style="fill: #f9cfdf;"/>
        <path d="M187.97,388.05c-18.9-15.73-34.58-31.37-47.5-45.98-15.17-17.14-26.55-32.85-34.92-45.57-24.42-37.1-40.72-62.7-32.58-91.24,5.44-19.08,23.17-44.3,48.37-49.61,1.31-.28,6.45-1.3,13.93-.95,27.55,1.3,46.15,19.41,52.96,26.84" style="fill: #f9cfdf;"/>
      </g>
      <g>
        <path d="M187.66,364.81c30.34-27.37,49.43-54.45,60.89-73.32,18.04-29.71,30.08-50.21,24.07-73.07-4.02-15.28-17.12-35.48-35.73-39.73-.97-.22-4.77-1.04-10.29-.76-20.35,1.04-34.09,15.54-39.13,21.49" style="fill: #d7518d;"/>
        <path d="M187.68,364.81c-30.34-27.37-49.43-54.45-60.88-73.32-18.04-29.71-30.07-50.21-24.07-73.07,4.02-15.28,17.11-35.48,35.73-39.73.97-.22,4.76-1.04,10.29-.76,20.35,1.04,34.09,15.54,39.12,21.49" style="fill: #d7518d;"/>
      </g>
      <path d="M269.71,177.88s-1.01,27.19-23.34,29.18c0,0,20.74.76,23.34,27.95,0,0,2.3-26.43,22.9-27.5,0,0-20.89-2.83-22.9-29.64Z" style="fill: #fffae1;"/>
      <path d="M281.16,235.2s-.5,13.6-11.67,14.59c0,0,10.37.38,11.67,13.98,0,0,1.15-13.21,11.45-13.75,0,0-10.44-1.41-11.45-14.82Z" style="fill: #fffae1;"/>
      <path d="M230.93,196.71s-.5,9.27-11.67,9.94c0,0,10.37.26,11.67,9.53,0,0,1.15-9.01,11.45-9.37,0,0-10.44-.96-11.45-10.1Z" style="fill: #fffae1;"/>
    </g>
    <g>
      <path d="M114.88,89.84c3.4,2.81,5.91,5.85,7.74,8.95,1.83,3.11,3,6.13,3.62,9.08.61,2.95.71,5.77.32,8.58-.39,2.82-1.25,5.49-2.6,8.24-1.35,2.75-3.01,5.19-5.1,7.46-2.09,2.27-4.52,4.26-7.4,6-2.87,1.74-6.14,3.21-9.86,4.31-3.71,1.1-7.81,1.66-12.31,1.41-4.49-.25-8.33-1.3-11.43-3.43-3.1-2.12-5.45-5.05-6.93-8.76-1.47-3.7-2.1-8.07-1.74-12.88.36-4.81,1.68-9.84,3.99-14.78,2.31-4.95,5.28-9.1,8.68-12.37,3.41-3.27,7.11-5.51,10.92-6.76,3.81-1.25,7.64-1.41,11.4-.59,3.77.82,7.3,2.74,10.69,5.55ZM104.92,102.84c-4.42-2.54-8.41-3.44-12-2.39-3.57,1.04-6.52,3.69-8.51,7.88-1.92,4.06-2.08,7.92-.58,11.17,1.5,3.27,4.87,5.42,9.9,6.68,5.04,1.27,9.15,1.15,12.35-.06,3.2-1.22,5.42-3.25,6.88-6.25,1.44-2.95,1.56-5.72.36-8.67-1.21-2.92-3.93-5.78-8.4-8.36Z" style="fill: #fffcee; stroke: #c472ac; stroke-miterlimit: 10;"/>
      <path d="M124.18,65.39c4.46-3.18,9.14-6.04,14-8.57.66.35,1.37.86,2.13,1.51.76.65,1.4,1.48,1.93,2.47.92,1.74,1.15,3.21.73,4.41-.42,1.2-1.31,2.16-2.67,2.92-3.01,1.69-5.95,3.53-8.78,5.5,5.34,7.15,10.59,14.36,15.76,21.62-.3.41-.76.94-1.38,1.6-.62.66-1.33,1.31-2.15,1.95-1.69,1.34-3.17,2.03-4.53,2-1.36-.03-2.98-.96-4.85-2.84-8.21-8.3-16.54-16.48-25.01-24.53-2.09-1.98-3.44-4.1-3.98-6.42-.53-2.31-.41-4.71.43-7.16.83-2.45,2.31-4.91,4.44-7.3,2.13-2.38,4.73-4.59,7.78-6.55,4.9-3.15,8.98-4.72,11.94-5.03,2.96-.3,5.04.79,6.26,3.13.52,1,.71,2.03.58,3.1-.13,1.07-.4,1.96-.82,2.67-1.34.37-2.71.82-4.1,1.36-1.39.54-2.92,1.3-4.58,2.3-2.64,1.6-4.41,3.27-5.33,4.88-.92,1.62-.71,3.23.53,4.83.55.71,1.11,1.42,1.66,2.14ZM160.73,47.74c5.3-1.56,10.72-2.78,16.22-3.67.49.55.98,1.26,1.46,2.14.48.87.78,1.87.92,3,.23,1.97-.09,3.46-.92,4.48-.84,1.02-2.02,1.66-3.58,1.96-3.45.66-6.86,1.46-10.22,2.42,2.39,8.6,4.68,17.24,6.87,25.9-.43.3-1.06.65-1.88,1.08-.82.43-1.72.81-2.71,1.15-2.07.72-3.68.87-4.93.39-1.25-.49-2.41-1.92-3.46-4.35-4.62-10.68-9.4-21.3-14.34-31.84-1.22-2.6-1.72-5.07-1.39-7.44.33-2.37,1.3-4.6,2.94-6.65,1.64-2.04,3.89-3.89,6.72-5.45,2.83-1.56,6.05-2.81,9.6-3.69,5.71-1.41,10.12-1.61,13-.96,2.9.66,4.46,2.37,4.75,5.02.13,1.13-.08,2.18-.59,3.17-.51.98-1.09,1.76-1.75,2.31-1.4-.08-2.85-.08-4.34,0-1.5.07-3.21.31-5.13.73-3.05.67-5.31,1.69-6.75,2.93-1.44,1.25-1.83,2.85-1.25,4.79.26.86.52,1.73.77,2.59ZM195.21,81.45c-2.25,0-3.84-.39-4.84-1.27-.99-.88-1.53-2.65-1.57-5.33-.23-16.5-.82-32.99-1.75-49.44.85-.24,2.09-.5,3.7-.76,1.61-.26,3.38-.42,5.29-.46,3.98-.08,6.84.46,8.5,1.46,1.67,1,2.34,2.87,2.06,5.55-1.7,16.56-3.74,33.11-6.14,49.63-.53.14-1.27.27-2.22.42-.95.14-1.96.21-3.04.21Z" style="fill: #fffcee; stroke: #c472ac; stroke-miterlimit: 10;"/>
      <path d="M220.23,29.03c.44-2.15,1.8-3.84,4.19-4.99,2.38-1.15,5.34-1.4,8.77-.68,3.43.73,5.94,2.15,7.45,4.13,1.52,1.99,1.82,4.05,1.02,6.13-.8,2.09-2.44,3.56-4.82,4.49-2.38.93-5.04,1.03-8.07.38-3.03-.65-5.28-1.81-6.83-3.59-1.55-1.77-2.15-3.71-1.71-5.87ZM218.55,41.22c.81-.06,1.95-.05,3.44.02,1.48.08,3.07.29,4.75.65,3.51.74,5.87,1.85,7.04,3.17,1.18,1.32,1.24,3.28.22,5.86-4.38,11.16-8.93,22.27-13.65,33.33-.56.02-1.33-.02-2.32-.1-.98-.08-2-.25-3.08-.49-2.24-.51-3.71-1.26-4.47-2.35-.75-1.09-.81-2.96-.14-5.61,2.9-11.46,5.63-22.96,8.19-34.47Z" style="fill: #fffcee; stroke: #c472ac; stroke-miterlimit: 10;"/>
      <path d="M256.37,105.63c-.54-.28-1.25-.72-2.13-1.3-.88-.59-1.76-1.27-2.64-2.05-1.84-1.62-2.84-3.05-2.99-4.44-.14-1.39.77-3.13,2.76-5.25,5.02-5.3,9.98-10.63,14.9-16,1.29-1.41,1.74-2.81,1.32-4.21-.43-1.39-1.5-2.67-3.21-3.78-1.14-.74-2.32-1.29-3.51-1.65-1.19-.36-2.4-.61-3.6-.73-6.16,8.62-12.43,17.19-18.81,25.68-.57-.11-1.33-.34-2.3-.64-.96-.31-1.94-.71-2.96-1.21-2.11-1.02-3.4-2.1-3.89-3.36-.48-1.26-.08-3.12,1.25-5.59,4.25-7.92,8.41-15.88,12.48-23.87.73-1.43,1.68-2.47,2.88-3.07,1.2-.61,2.65-1.02,4.36-1.19,2.9-.31,6.3-.04,10.13.95,3.83.99,7.81,2.72,11.78,5.28,7.13,4.6,11.25,10.01,12.34,15.1,1.11,5.13-.77,9.46-5.11,12.97-7.61,6.2-15.29,12.31-23.06,18.36Z" style="fill: #fffcee; stroke: #c472ac; stroke-miterlimit: 10;"/>
      <path d="M283.7,113.7c-1.62,1.79-2.35,3.74-2.22,5.91.13,2.18.73,4.38,1.83,6.73,1.12,2.41,2.44,4.67,4,6.83,1.56,2.16,3.01,3.94,4.41,5.27-.31,1.2-.96,2.28-1.93,3.23-.97.95-2.13,1.52-3.45,1.75-1.65.29-3.2.08-4.63-.55-1.44-.63-2.77-1.61-4.03-2.9-1.26-1.29-2.42-2.82-3.5-4.6-1.08-1.78-2.1-3.71-3.1-5.81-1.4-2.95-2.32-5.72-2.76-8.51-.45-2.79-.37-5.48.26-8.19.63-2.71,1.86-5.4,3.74-8.11,1.88-2.7,4.5-5.31,8-7.74,3.44-2.39,6.86-3.92,10.35-4.43,3.48-.5,6.9-.2,10.2.98,3.3,1.19,6.4,3.1,9.21,5.78,2.8,2.67,5.18,5.83,7.04,9.39,2.09,4.01,3.36,8.05,3.82,11.89.45,3.85.19,7.37-.74,10.44-.93,3.07-2.51,5.57-4.67,7.46-2.16,1.9-4.8,3.06-7.84,3.57-2.25.38-4.17-.07-5.75-1.25-1.59-1.18-2.9-2.93-4.01-5.22-4.13-8.37-8.94-15.64-14.22-21.92ZM305.99,113.55c-1.36-2.64-3.26-4.47-5.57-5.46-2.32-1-4.78-.98-7.38-.05,3.99,4.67,7.75,9.84,11.2,15.55.59-.28,1.14-.71,1.64-1.28.5-.58.88-1.29,1.15-2.13.26-.84.33-1.83.19-2.95-.14-1.12-.55-2.36-1.23-3.67Z" style="fill: #fffcee; stroke: #c472ac; stroke-miterlimit: 10;"/>
    </g>
  </g>
</svg>